<?xml version="1.0" standalone="no"?>
<!DOCTYPE svg PUBLIC "-//W3C//DTD SVG 20010904//EN"
 "http://www.w3.org/TR/2001/REC-SVG-20010904/DTD/svg10.dtd">
<svg version="1.0" xmlns="http://www.w3.org/2000/svg"
 width="260.000000pt" height="260.000000pt" viewBox="0 0 260.000000 260.000000"
 preserveAspectRatio="xMidYMid meet">
<metadata>
Created by potrace 1.14, written by Peter Selinger 2001-2017
</metadata>
<g transform="translate(0.000000,260.000000) scale(0.100000,-0.100000)"
fill="#000000" stroke="none">
<path d="M501 2306 c-6 -7 -7 -17 -3 -21 4 -5 0 -6 -8 -3 -17 6 -65 -40 -65
-62 1 -8 -2 -32 -6 -52 -3 -21 -3 -38 2 -38 4 0 4 -13 -1 -29 -4 -16 -6 -32
-3 -35 3 -3 5 -43 5 -90 -1 -68 3 -88 15 -95 14 -8 16 -87 19 -757 1 -412 4
-755 5 -762 1 -6 5 -10 7 -7 3 3 15 -8 26 -24 12 -15 27 -26 35 -23 10 3 12 0
8 -12 -4 -9 -3 -15 2 -12 5 3 351 6 769 6 675 0 761 2 766 16 3 8 10 13 15 10
5 -3 20 12 35 34 14 22 23 40 20 40 -4 0 0 8 7 17 8 9 10 14 4 11 -7 -4 -10
240 -9 724 1 649 3 732 17 742 18 14 29 146 12 146 -5 0 -3 5 5 10 8 5 10 10
5 10 -6 0 -8 26 -5 70 3 39 1 70 -4 70 -4 0 -2 8 5 17 10 11 10 14 2 9 -8 -4
-13 -2 -13 4 0 6 -7 18 -15 27 -8 8 -13 19 -10 24 3 4 -6 11 -20 15 -14 3 -25
10 -25 15 0 5 -349 9 -786 9 -433 0 -790 2 -794 5 -4 3 -13 -1 -19 -9z m114
-66 c4 -7 13 -7 24 0 12 6 22 5 28 -1 8 -8 18 -7 33 1 12 7 25 8 29 4 7 -11
82 -10 100 0 6 4 17 3 24 -3 8 -6 18 -6 27 -1 9 5 19 5 27 -1 7 -6 19 -7 30
-2 10 5 29 8 43 6 33 -4 58 -4 98 0 17 2 32 -1 32 -5 0 -5 8 -5 17 1 10 5 26
5 39 1 12 -5 24 -7 27 -4 10 10 77 10 77 0 0 -6 5 -4 10 4 5 8 10 10 10 5 0
-12 81 -12 99 -1 7 4 17 3 24 -3 8 -6 18 -6 27 -1 9 5 19 5 27 -1 8 -7 19 -7
34 2 14 7 24 8 26 2 4 -10 55 -9 72 2 6 3 11 2 11 -2 0 -10 82 -9 99 1 7 4 17
3 24 -3 8 -6 18 -6 27 -1 9 5 19 5 27 -1 8 -7 19 -7 34 2 14 7 24 8 26 2 3 -9
64 -9 88 0 5 2 19 1 30 -3 11 -4 30 -4 41 1 15 5 35 1 64 -13 41 -20 41 -21
39 -69 -2 -27 0 -51 3 -54 3 -3 2 -21 -2 -40 -4 -19 -5 -36 -3 -39 3 -3 6 -26
7 -51 1 -37 -3 -47 -19 -52 -23 -8 -31 -10 -45 -12 -7 -1 -7 -7 0 -21 8 -15 8
-20 -2 -20 -7 -1 -4 -6 8 -13 20 -12 21 -13 19 -737 -1 -399 -3 -729 -4 -733
0 -5 -5 -6 -10 -3 -5 3 -11 0 -14 -8 -3 -7 -16 -13 -29 -12 -13 1 -31 -2 -40
-6 -12 -6 -18 -5 -18 2 0 6 -5 8 -11 5 -15 -10 -78 -12 -92 -3 -6 3 -19 2 -28
-3 -11 -6 -20 -5 -24 1 -3 5 -15 6 -29 0 -12 -4 -29 -4 -36 0 -8 5 -22 4 -31
-1 -11 -6 -20 -5 -24 1 -3 5 -15 6 -29 0 -12 -4 -29 -4 -36 0 -8 5 -22 4 -32
-1 -10 -5 -18 -6 -18 -2 0 4 -11 8 -25 8 -14 0 -25 -3 -25 -7 0 -4 -11 -3 -25
2 -14 5 -27 5 -30 0 -3 -5 -18 -5 -35 0 -18 5 -30 5 -30 0 0 -6 -10 -6 -24 0
-13 5 -27 6 -31 2 -9 -9 -49 -8 -56 2 -4 4 -16 3 -28 -3 -14 -8 -21 -8 -21 -1
0 8 -6 8 -20 0 -14 -8 -20 -8 -20 0 0 8 -6 8 -20 0 -14 -8 -20 -8 -20 0 0 8
-6 8 -20 0 -14 -8 -20 -8 -20 0 0 8 -6 8 -20 0 -14 -8 -20 -8 -20 0 0 8 -6 8
-20 0 -14 -8 -20 -8 -20 0 0 8 -6 8 -20 0 -14 -8 -20 -8 -20 0 0 6 -5 8 -11 5
-15 -10 -79 -12 -79 -3 0 3 -14 3 -30 -2 -17 -5 -30 -5 -30 0 0 5 -6 7 -14 4
-21 -8 -106 -10 -106 -2 0 4 -6 5 -14 2 -21 -8 -106 -10 -106 -2 0 4 -6 5 -14
2 -14 -5 -76 21 -76 32 0 3 6 2 13 -2 9 -6 9 -4 1 7 -6 8 -10 48 -10 89 1 41
-2 82 -6 91 -4 9 -4 19 -1 23 10 9 10 106 0 106 -4 0 -5 6 -1 12 10 16 12 79
2 99 -4 9 -4 19 -1 23 10 9 10 106 0 106 -4 0 -5 5 -1 11 10 16 11 229 1 229
-5 0 -5 6 -1 12 10 16 12 79 2 99 -4 9 -4 19 -1 23 10 9 10 106 0 106 -4 0 -5
5 -1 11 10 16 11 229 1 229 -5 0 -5 6 -1 12 11 17 11 79 2 100 -5 9 -4 20 2
23 6 4 8 11 4 16 -3 6 0 18 8 27 8 9 14 28 14 42 -1 19 -7 26 -27 28 -19 2
-28 10 -32 28 -2 13 1 24 7 25 6 0 7 2 1 5 -11 4 -12 95 -1 113 4 6 4 11 -1
11 -9 0 -11 82 -3 90 3 3 10 14 16 25 7 13 22 20 43 21 17 1 34 4 38 8 9 9 21
7 28 -4z"/>
<path d="M622 2091 c-14 -41 -15 -44 -3 -36 5 3 12 1 15 -4 7 -11 44 -3 53 12
4 6 1 7 -8 2 -12 -7 -12 -6 -1 7 10 13 10 19 -4 33 -12 12 -19 13 -24 5 -6 -9
-9 -9 -12 1 -2 7 -10 -2 -16 -20z"/>
<path d="M770 2108 c0 -5 -4 -7 -9 -4 -5 3 -11 -7 -13 -23 -4 -25 -1 -30 22
-33 39 -6 54 1 39 18 -8 10 -8 14 -1 14 6 0 9 6 6 14 -6 16 -44 29 -44 14z"/>
<path d="M900 2109 c0 -5 -7 -9 -15 -9 -18 0 -16 -18 4 -39 21 -23 38 -21 50
5 6 15 7 24 1 24 -6 0 -9 5 -7 11 1 6 -6 13 -15 14 -10 2 -18 -1 -18 -6z"/>
<path d="M1660 2086 c-12 -35 -12 -36 -2 -35 4 1 9 0 12 -1 14 -6 290 -4 290
2 0 5 6 8 13 8 6 0 13 11 13 25 1 13 -1 24 -5 23 -3 0 -8 1 -11 2 -3 1 -71 3
-152 4 l-148 1 -10 -29z"/>
<path d="M910 1920 c0 -6 -6 -9 -12 -7 -7 1 -12 -6 -12 -15 1 -10 -2 -15 -7
-12 -5 3 -9 1 -9 -5 0 -13 19 -25 46 -28 16 -3 23 3 26 22 3 14 1 25 -4 25 -5
0 -7 4 -4 9 3 5 -1 11 -9 15 -8 3 -15 1 -15 -4z"/>
<path d="M1534 1919 c-4 -7 -8 -24 -8 -39 -1 -22 3 -26 29 -26 17 1 33 7 36
16 7 16 -9 55 -18 46 -4 -3 -12 -1 -19 5 -8 7 -14 6 -20 -2z"/>
<path d="M624 1903 c3 -7 2 -13 -3 -13 -16 0 -7 -30 10 -35 26 -8 58 12 56 34
0 11 -5 17 -9 15 -4 -3 -8 -1 -8 3 0 5 -11 9 -25 9 -17 0 -24 -4 -21 -13z"/>
<path d="M750 1884 c0 -34 14 -52 25 -34 5 8 11 7 21 -1 12 -10 13 -9 8 5 -3
9 -2 16 4 16 5 0 7 10 5 23 -3 17 -12 23 -34 23 -26 2 -29 -1 -29 -32z"/>
<path d="M1020 1912 c-11 -5 -14 -15 -10 -32 4 -20 11 -25 36 -26 26 0 31 3
28 22 -4 42 -19 52 -54 36z"/>
<path d="M1151 1911 c-8 -5 -15 -20 -17 -33 -2 -19 3 -23 26 -25 20 -1 30 4
38 22 10 21 8 26 -8 35 -22 12 -21 12 -39 1z"/>
<path d="M1274 1911 c-14 -10 -10 -41 6 -51 31 -20 47 -11 48 24 1 29 -2 34
-22 34 -13 0 -28 -3 -32 -7z"/>
<path d="M1399 1915 c0 0 -2 -9 -4 -19 -2 -10 2 -25 10 -32 16 -17 45 -18 45
-3 0 5 4 8 8 5 4 -2 8 4 8 15 0 10 -4 19 -9 19 -4 0 -6 4 -3 9 4 6 -27 10 -55
6z"/>
<path d="M1654 1896 c1 -12 6 -27 13 -33 14 -16 43 -17 43 -2 0 5 4 8 8 5 10
-6 9 30 -1 40 -4 4 -20 8 -35 9 -23 1 -28 -3 -28 -19z"/>
<path d="M1790 1885 c0 -33 2 -35 28 -31 15 2 30 5 34 5 7 1 2 40 -5 48 -3 2
-16 6 -31 9 -24 4 -26 2 -26 -31z"/>
<path d="M1925 1910 c3 -5 2 -10 -3 -10 -14 0 -10 -24 8 -42 15 -16 18 -16 38
-2 21 14 33 42 13 30 -5 -3 -8 2 -7 11 1 10 -9 17 -27 20 -18 2 -26 0 -22 -7z"/>
<path d="M1201 1683 c-10 -12 -16 -12 -29 -1 -12 10 -14 10 -8 1 4 -8 1 -13
-8 -14 -25 -2 -30 -4 -43 -12 -7 -5 -13 -6 -13 -2 0 3 -10 0 -22 -7 -13 -7
-26 -11 -30 -10 -5 1 -8 -3 -8 -9 0 -5 -4 -8 -8 -5 -5 3 -16 -4 -25 -15 -10
-11 -23 -17 -29 -13 -8 5 -9 2 -5 -10 4 -9 3 -15 -3 -11 -5 3 -22 -7 -38 -23
-16 -16 -37 -32 -46 -35 -10 -4 -15 -11 -12 -16 7 -11 -19 -33 -28 -24 -4 4
-4 0 -1 -9 4 -10 -2 -24 -15 -36 -12 -11 -19 -25 -15 -31 3 -6 -1 -11 -10 -11
-9 0 -14 -4 -11 -8 3 -5 -1 -20 -8 -33 -7 -14 -12 -33 -10 -42 1 -9 -3 -20 -8
-24 -7 -4 -8 -1 -3 7 5 9 4 11 -4 6 -9 -6 -9 -11 1 -24 11 -13 11 -14 -1 -7
-11 6 -13 3 -9 -13 4 -13 1 -22 -5 -22 -7 0 -5 -5 3 -10 8 -5 10 -10 4 -10 -7
0 -9 -30 -7 -87 2 -49 4 -99 3 -113 0 -20 2 -22 10 -10 8 12 10 10 11 -10 4
-60 7 -74 23 -85 9 -7 16 -20 16 -29 0 -9 5 -16 11 -16 6 0 9 -7 5 -15 -3 -8
0 -14 7 -12 7 1 11 -4 10 -10 -2 -7 3 -13 11 -13 10 0 13 -7 11 -20 -2 -11 0
-18 6 -15 5 4 9 1 9 -5 0 -6 3 -9 8 -7 4 2 15 -4 25 -15 11 -12 13 -18 5 -19
-7 0 3 -7 22 -14 19 -7 28 -14 20 -14 -15 -1 39 -36 73 -47 9 -4 17 -10 17
-15 0 -5 6 -8 13 -6 6 1 11 -4 9 -12 -3 -12 0 -12 12 -2 10 8 16 9 21 1 3 -5
17 -10 31 -10 14 0 23 -4 20 -8 -6 -10 -4 -10 79 -15 33 -2 65 -5 70 -7 6 -1
12 -1 15 0 3 2 28 4 55 5 69 4 67 4 60 15 -3 6 1 10 10 10 10 0 14 -5 10 -12
-4 -7 -1 -6 7 2 7 9 20 15 28 15 8 0 20 5 25 12 6 6 19 13 30 15 11 2 23 8 27
13 4 5 11 10 15 11 20 2 42 17 37 25 -3 5 2 9 10 9 9 0 16 5 16 11 0 5 3 8 8
6 4 -2 25 15 47 37 22 22 33 36 25 31 -15 -8 26 43 45 57 6 4 6 8 1 8 -5 0 -2
8 7 18 15 16 17 21 17 42 0 5 8 6 18 3 14 -6 15 -4 4 9 -9 11 -10 18 -2 23 6
3 8 10 5 15 -3 5 -1 11 5 15 15 9 12 27 -2 20 -7 -4 -5 0 5 8 13 11 18 33 20
101 2 52 -1 86 -7 86 -6 0 -5 5 2 12 8 8 8 19 -3 45 -10 23 -11 33 -3 33 7 0
3 6 -7 14 -11 8 -16 20 -12 29 3 8 -1 21 -8 27 -8 7 -12 16 -9 21 3 5 0 9 -5
9 -6 0 -11 12 -11 28 0 21 -2 24 -10 12 -8 -13 -10 -13 -10 1 0 9 -9 24 -20
34 -11 10 -20 24 -20 31 0 7 -9 18 -20 24 -11 6 -20 18 -20 27 0 9 -2 14 -5
11 -3 -3 -20 8 -36 23 -17 16 -35 27 -39 24 -4 -3 -14 3 -21 12 -12 14 -12 16
1 8 9 -5 12 -5 7 1 -9 9 -14 11 -48 13 -13 1 -18 5 -13 13 5 8 2 9 -9 5 -10
-3 -17 -2 -17 4 0 6 -4 7 -10 4 -5 -3 -10 -1 -10 5 0 7 -7 10 -15 6 -8 -3 -15
0 -15 7 0 8 -4 6 -10 -3 -9 -14 -15 -7 -11 14 1 5 -6 3 -15 -5 -10 -8 -15 -9
-11 -3 4 7 -7 11 -30 12 -19 1 -44 4 -54 7 -12 4 -19 1 -19 -7 0 -10 -3 -9
-10 2 -5 8 -10 10 -10 4 0 -8 -13 -9 -38 -4 -27 5 -42 3 -51 -7z m131 -68 c5
-6 8 -6 8 1 0 6 7 11 15 11 8 0 15 -4 15 -8 0 -4 7 -10 16 -13 8 -3 13 -2 10
3 -4 5 3 7 14 4 11 -3 17 -9 15 -14 -3 -4 4 -6 15 -4 11 2 20 -2 20 -8 0 -7 4
-6 10 3 7 11 10 11 10 2 0 -7 5 -10 10 -7 6 3 10 1 10 -4 0 -6 7 -11 15 -11 8
0 15 -4 15 -10 0 -5 9 -10 19 -10 10 0 22 -7 25 -16 3 -8 10 -12 16 -9 5 3 10
1 10 -5 0 -6 4 -8 10 -5 6 3 7 -1 4 -10 -4 -9 -2 -15 3 -13 5 2 26 -13 45 -34
27 -27 33 -39 24 -48 -8 -8 -7 -10 5 -5 10 4 20 1 25 -6 5 -8 3 -10 -7 -4 -8
5 -7 0 4 -12 9 -11 17 -25 17 -31 0 -7 4 -12 8 -12 5 0 9 -6 9 -12 1 -23 8
-43 18 -50 6 -5 4 -8 -4 -8 -11 0 -10 -4 5 -16 10 -8 12 -12 4 -8 -13 7 -13 6
-1 -10 18 -21 25 -69 9 -60 -7 5 -8 2 -2 -7 12 -19 12 -82 -1 -91 -6 -5 -5 -8
4 -8 11 0 11 -3 1 -15 -7 -8 -9 -15 -4 -15 4 0 -1 -7 -12 -16 -10 -8 -13 -13
-6 -9 15 8 16 -11 1 -20 -6 -4 -8 -13 -5 -21 3 -8 1 -14 -4 -14 -5 0 -7 -9 -5
-20 2 -11 0 -18 -6 -15 -5 4 -9 1 -9 -5 0 -6 -5 -8 -12 -4 -7 4 -8 3 -4 -4 8
-14 -12 -55 -23 -47 -5 2 -8 -3 -7 -13 0 -9 -5 -16 -12 -14 -8 1 -11 -2 -7 -8
3 -5 2 -10 -4 -10 -6 0 -7 -7 -4 -17 4 -11 3 -14 -5 -9 -7 4 -12 2 -12 -4 0
-6 -4 -9 -9 -5 -6 3 -15 -4 -21 -16 -7 -11 -14 -19 -16 -16 -3 3 -17 -6 -30
-18 -15 -14 -32 -21 -41 -18 -10 4 -14 2 -10 -4 7 -11 -35 -30 -63 -28 -8 0
-20 -6 -26 -14 -8 -10 -38 -15 -112 -16 -56 -1 -102 2 -102 6 0 5 -7 6 -15 3
-9 -4 -18 1 -21 11 -5 13 -9 14 -15 3 -5 -8 -9 -8 -9 -2 0 6 -12 12 -26 12
-15 -1 -31 7 -36 16 -5 9 -13 14 -19 11 -5 -4 -9 -2 -9 4 0 6 -7 8 -15 5 -9
-4 -15 0 -15 10 0 9 -7 16 -15 16 -8 0 -15 4 -15 8 0 4 -14 16 -31 26 -19 11
-28 23 -25 32 3 8 2 13 -2 10 -12 -7 -44 33 -36 46 5 8 1 9 -10 5 -10 -4 -16
-2 -15 6 3 16 -12 48 -20 43 -6 -4 -10 19 -14 76 -2 20 -5 24 -15 15 -10 -8
-12 -7 -10 4 2 8 10 17 18 21 11 5 10 7 -6 7 -19 1 -20 6 -18 89 2 89 11 135
23 127 4 -2 7 10 7 28 -1 34 13 59 28 49 5 -3 6 0 2 6 -3 6 -2 13 4 17 6 4 8
10 5 14 -2 5 3 17 11 27 9 10 12 13 8 5 -5 -9 -3 -12 5 -7 6 4 9 12 6 17 -9
13 93 111 107 103 8 -5 9 -2 5 10 -4 9 -3 14 2 11 5 -3 12 -1 16 5 4 6 11 8
16 5 5 -4 9 -1 9 6 0 6 8 9 19 6 15 -3 18 -1 14 11 -5 11 -2 14 10 9 9 -3 17
-2 17 2 0 5 11 8 25 7 13 -2 22 1 19 5 -5 9 2 11 48 13 15 1 29 4 32 6 9 9 71
5 78 -5z"/>
<path d="M1233 1533 c4 -6 0 -14 -9 -17 -8 -3 -13 -2 -9 3 6 11 -22 8 -32 -4
-4 -4 -2 -5 6 0 9 5 12 4 7 -3 -4 -6 -13 -9 -21 -5 -8 3 -15 0 -15 -6 0 -6 -7
-8 -15 -5 -8 4 -15 1 -15 -7 0 -7 -3 -10 -6 -6 -4 3 -13 -1 -21 -9 -8 -8 -19
-12 -24 -9 -5 4 -9 -2 -9 -11 0 -10 -3 -14 -6 -11 -8 8 -74 -57 -74 -73 0 -6
-4 -8 -10 -5 -5 3 -10 -3 -10 -14 0 -12 -5 -21 -11 -21 -6 0 -8 -7 -5 -16 3
-8 2 -12 -4 -9 -6 3 -11 -1 -11 -9 -3 -35 -5 -41 -16 -39 -5 1 -9 -9 -7 -22 1
-14 -3 -25 -9 -25 -7 0 -5 -5 3 -10 8 -5 10 -10 4 -10 -7 0 -8 -17 -4 -50 4
-33 3 -50 -4 -50 -8 0 -8 -3 -1 -8 6 -4 10 -17 9 -29 -1 -13 3 -23 7 -23 5 0
9 -9 9 -19 0 -11 5 -23 11 -26 6 -4 8 -13 5 -21 -3 -8 1 -17 10 -21 8 -3 13
-12 10 -19 -3 -8 -2 -13 2 -11 4 1 31 -22 59 -50 29 -29 60 -53 68 -53 9 0 14
-3 12 -7 -3 -5 10 -15 29 -24 18 -9 31 -13 29 -9 -3 5 4 6 15 3 11 -3 20 -10
20 -15 0 -6 13 -8 29 -6 17 2 28 1 26 -2 -2 -4 27 -6 65 -6 39 1 70 5 70 9 0
5 5 5 10 2 6 -3 10 -1 10 5 0 7 7 9 16 6 10 -4 13 -2 8 6 -5 8 -2 9 9 5 20 -8
49 2 42 13 -3 4 9 13 26 19 19 7 28 15 23 22 -4 7 -3 9 4 5 6 -3 13 -2 17 4 4
6 11 8 16 4 5 -3 9 -2 8 3 -4 21 2 34 13 27 8 -5 9 -2 5 9 -3 9 -1 19 5 23 7
5 8 2 3 -7 -8 -12 -6 -12 8 0 9 7 14 17 11 22 -3 5 0 9 7 9 7 0 4 7 -7 16 -10
8 -12 12 -4 8 13 -7 13 -6 0 12 -8 10 -19 22 -23 25 -5 3 -8 9 -8 13 3 20 0
26 -11 20 -10 -5 -10 -4 -1 6 10 11 9 16 -5 27 -9 8 -11 11 -3 7 10 -5 12 -3
5 7 -15 25 -12 133 6 147 8 8 9 11 3 7 -15 -7 -8 15 20 63 22 37 30 92 14 89
-6 -1 -16 9 -24 23 -7 14 -13 21 -13 17 0 -4 -15 6 -32 22 -18 17 -38 31 -43
31 -6 0 -16 9 -23 21 -9 14 -17 17 -25 11 -12 -9 -62 10 -52 20 3 3 -31 5 -76
6 -44 1 -85 5 -91 8 -6 4 -8 3 -5 -3z m127 -87 c0 -6 5 -4 10 4 8 13 11 13 22
1 11 -11 11 -13 -1 -6 -10 6 -12 4 -7 -4 5 -7 14 -10 21 -7 7 2 18 -1 24 -7 6
-6 11 -8 11 -4 0 4 6 2 14 -5 8 -7 11 -17 8 -22 -3 -5 0 -6 6 -3 15 10 42 -3
42 -20 0 -9 6 -13 14 -10 18 7 30 -21 16 -38 -5 -6 -7 -15 -3 -18 3 -4 1 -7
-6 -7 -7 0 -9 -4 -6 -10 3 -5 2 -10 -4 -10 -6 0 -7 -7 -4 -17 5 -12 3 -14 -7
-8 -9 5 -11 4 -6 -4 4 -6 2 -18 -4 -26 -10 -12 -10 -15 1 -15 9 0 10 -3 3 -8
-13 -8 -13 -121 0 -141 6 -9 5 -12 0 -8 -5 3 -10 -3 -10 -13 0 -15 3 -17 16
-7 8 6 12 8 8 3 -4 -5 0 -25 8 -45 9 -20 17 -44 19 -54 4 -16 2 -17 -12 -5
-10 7 -14 8 -10 1 8 -13 -2 -45 -12 -38 -4 2 -21 -8 -37 -23 -16 -15 -36 -27
-44 -27 -8 0 -21 -6 -28 -15 -8 -8 -11 -9 -7 -2 3 6 1 12 -4 12 -6 0 -11 -5
-11 -11 0 -6 -7 -9 -15 -6 -8 4 -17 2 -20 -3 -6 -10 -70 -8 -81 3 -4 3 -16 2
-27 -4 -14 -8 -18 -8 -13 0 6 10 -13 16 -36 12 -5 0 -8 4 -8 10 0 6 -7 9 -15
5 -8 -3 -15 -1 -15 5 0 5 -7 12 -16 16 -10 3 -29 19 -44 35 -20 20 -30 25 -33
16 -3 -7 -6 -3 -6 9 -1 12 -6 25 -11 28 -6 4 -8 11 -5 16 3 5 0 6 -8 3 -7 -2
-14 1 -14 8 -1 21 -7 43 -15 48 -17 13 -29 130 -13 130 5 0 4 4 -4 9 -9 6 -10
11 -3 15 6 4 8 14 5 23 -5 12 -3 14 7 8 9 -5 11 -4 6 4 -4 6 -2 18 4 26 7 8
10 24 7 35 -3 10 -2 19 2 18 19 -2 31 3 26 12 -3 6 -1 10 5 10 6 0 9 4 6 9 -3
4 8 19 24 31 16 12 27 27 23 33 -3 5 -1 7 5 3 6 -3 13 -2 17 4 4 6 11 8 16 4
5 -3 8 0 7 8 -2 8 7 13 24 12 15 0 24 4 21 9 -3 6 5 8 20 5 16 -3 24 -1 21 7
-3 8 17 11 66 12 44 0 70 -4 70 -11z"/>
<path d="M1808 552 c-10 -2 -18 -12 -18 -23 0 -26 4 -34 13 -31 4 1 7 -2 7 -7
0 -5 9 -7 20 -4 14 4 20 14 20 33 0 29 -13 39 -42 32z"/>
<path d="M1933 549 c-13 -5 -23 -11 -23 -14 0 -4 6 -3 13 1 9 6 9 4 -1 -8 -19
-23 22 -52 51 -36 14 7 16 12 7 18 -10 6 -9 9 1 13 11 4 11 6 1 6 -7 1 -11 5
-8 10 9 13 -16 19 -41 10z"/>
</g>
</svg>
